<svg width="821" height="81" viewBox="0 0 821 81" fill="none" xmlns="http://www.w3.org/2000/svg">
<g filter="url(#filter0_d_6_1838)">
<path d="M15.9394 57.5333V72.4651H7.6042V37.556H15.6667V51.0901H15.9565C16.5474 49.4765 17.5133 48.2151 18.8542 47.306C20.2065 46.3969 21.8599 45.9424 23.8144 45.9424C25.6553 45.9424 27.2576 46.3515 28.6212 47.1697C29.9849 47.9765 31.0417 49.1185 31.7917 50.5958C32.5531 52.0731 32.9281 53.8004 32.9167 55.7776V72.4651H24.5815V57.414C24.5928 55.9594 24.2292 54.8231 23.4906 54.0049C22.7519 53.1867 21.7122 52.7776 20.3712 52.7776C19.4962 52.7776 18.7235 52.9708 18.0531 53.3572C17.394 53.7322 16.8769 54.2719 16.5019 54.9765C16.1383 55.681 15.9508 56.5333 15.9394 57.5333Z" fill="white"/>
<path d="M45.5005 72.9083C43.8301 72.9083 42.3471 72.6299 41.0516 72.0731C39.7676 71.5049 38.7505 70.6526 38.0005 69.5163C37.2619 68.3685 36.8926 66.931 36.8926 65.2038C36.8926 63.7492 37.1482 62.5219 37.6596 61.5219C38.171 60.5219 38.8755 59.7094 39.7732 59.0844C40.671 58.4594 41.7051 57.9879 42.8755 57.6697C44.046 57.3401 45.296 57.1185 46.6255 57.0049C48.1141 56.8685 49.313 56.7265 50.2221 56.5788C51.1312 56.4197 51.7903 56.1981 52.1994 55.914C52.6198 55.6185 52.8301 55.2038 52.8301 54.6697V54.5844C52.8301 53.7094 52.5289 53.0333 51.9266 52.556C51.3244 52.0788 50.5119 51.8401 49.4891 51.8401C48.3869 51.8401 47.5005 52.0788 46.8301 52.556C46.1596 53.0333 45.7335 53.6924 45.5516 54.5333L37.8641 54.2606C38.0914 52.6697 38.6766 51.2492 39.6198 49.9992C40.5744 48.7379 41.8812 47.7492 43.5403 47.0333C45.2107 46.306 47.2164 45.9424 49.5573 45.9424C51.2278 45.9424 52.7676 46.1413 54.1766 46.539C55.5857 46.9254 56.813 47.4935 57.8585 48.2435C58.9039 48.9822 59.7107 49.8913 60.2789 50.9708C60.8585 52.0504 61.1482 53.2833 61.1482 54.6697V72.4651H53.3073V68.8174H53.1028C52.6369 69.7038 52.0403 70.4538 51.313 71.0674C50.5971 71.681 49.7505 72.1413 48.7732 72.4481C47.8073 72.7549 46.7164 72.9083 45.5005 72.9083ZM48.0744 67.4538C48.9721 67.4538 49.7789 67.2719 50.4948 66.9083C51.2221 66.5447 51.8017 66.0447 52.2335 65.4083C52.6653 64.7606 52.8812 64.0106 52.8812 63.1583V60.6697C52.6426 60.7947 52.3528 60.9083 52.0119 61.0106C51.6823 61.1129 51.3187 61.2094 50.921 61.3004C50.5232 61.3913 50.1141 61.4708 49.6937 61.539C49.2732 61.6072 48.8698 61.6697 48.4835 61.7265C47.6994 61.8515 47.0289 62.0447 46.4721 62.306C45.9266 62.5674 45.5062 62.9083 45.2107 63.3288C44.9266 63.7379 44.7846 64.2265 44.7846 64.7947C44.7846 65.6583 45.0914 66.3174 45.7051 66.7719C46.3301 67.2265 47.1198 67.4538 48.0744 67.4538Z" fill="white"/>
<path d="M66.2448 72.4651V37.556H74.5801V50.7663H74.7505C75.0914 49.9708 75.5744 49.2038 76.1994 48.4651C76.8357 47.7265 77.6426 47.1242 78.6198 46.6583C79.6085 46.181 80.7903 45.9424 82.1653 45.9424C83.9835 45.9424 85.6823 46.4197 87.2619 47.3742C88.8528 48.3288 90.1369 49.8004 91.1142 51.789C92.0914 53.7776 92.5801 56.3117 92.5801 59.3913C92.5801 62.3572 92.1085 64.8401 91.1653 66.8401C90.2335 68.8401 88.9721 70.3401 87.3812 71.3401C85.8017 72.3401 84.046 72.8401 82.1141 72.8401C80.796 72.8401 79.6539 72.6242 78.688 72.1924C77.7221 71.7606 76.9096 71.1924 76.2505 70.4879C75.6028 69.7833 75.1028 69.0276 74.7505 68.2208H74.4948V72.4651H66.2448ZM74.4096 59.3742C74.4096 60.7833 74.5971 62.0106 74.9721 63.056C75.3585 64.1015 75.9096 64.914 76.6255 65.4935C77.3528 66.0617 78.2221 66.3458 79.2335 66.3458C80.2562 66.3458 81.1255 66.0617 81.8414 65.4935C82.5573 64.914 83.0971 64.1015 83.4607 63.056C83.8357 62.0106 84.0232 60.7833 84.0232 59.3742C84.0232 57.9651 83.8357 56.7435 83.4607 55.7094C83.0971 54.6754 82.5573 53.8742 81.8414 53.306C81.1369 52.7379 80.2676 52.4538 79.2335 52.4538C78.2107 52.4538 77.3414 52.7322 76.6255 53.289C75.9096 53.8458 75.3585 54.6413 74.9721 55.6754C74.5971 56.7094 74.4096 57.9424 74.4096 59.3742Z" fill="white"/>
<path d="M96.948 72.4651V46.2833H105.283V72.4651H96.948ZM101.124 43.2322C99.9536 43.2322 98.948 42.8458 98.107 42.0731C97.2661 41.289 96.8457 40.3458 96.8457 39.2435C96.8457 38.1526 97.2661 37.2208 98.107 36.4481C98.948 35.664 99.9536 35.2719 101.124 35.2719C102.306 35.2719 103.312 35.664 104.141 36.4481C104.982 37.2208 105.402 38.1526 105.402 39.2435C105.402 40.3458 104.982 41.289 104.141 42.0731C103.312 42.8458 102.306 43.2322 101.124 43.2322Z" fill="white"/>
<path d="M125.367 46.2833V52.4197H108.85V46.2833H125.367ZM112.31 40.0106H120.645V64.2322C120.645 64.7435 120.725 65.1583 120.884 65.4765C121.054 65.7833 121.299 66.0049 121.617 66.1413C121.935 66.2663 122.316 66.3288 122.759 66.3288C123.077 66.3288 123.412 66.3004 123.765 66.2435C124.128 66.1754 124.401 66.1185 124.583 66.0731L125.844 72.0901C125.447 72.2038 124.884 72.3458 124.157 72.5163C123.441 72.6867 122.583 72.7947 121.583 72.8401C119.628 72.931 117.952 72.7038 116.554 72.1583C115.168 71.6015 114.106 70.7379 113.367 69.5674C112.64 68.3969 112.287 66.9254 112.31 65.1526V40.0106Z" fill="white"/>
<path d="M152.15 54.2776L144.496 54.4822C144.417 53.9367 144.201 53.4538 143.849 53.0333C143.496 52.6015 143.036 52.2663 142.468 52.0276C141.911 51.7776 141.263 51.6526 140.525 51.6526C139.559 51.6526 138.735 51.8458 138.053 52.2322C137.383 52.6185 137.053 53.1413 137.064 53.8004C137.053 54.3117 137.258 54.7549 137.678 55.1299C138.11 55.5049 138.877 55.806 139.979 56.0333L145.025 56.9879C147.638 57.4879 149.581 58.3174 150.854 59.4765C152.138 60.6356 152.786 62.1697 152.797 64.0788C152.786 65.8742 152.252 67.4367 151.195 68.7663C150.15 70.0958 148.718 71.1299 146.9 71.8685C145.081 72.5958 143.002 72.9594 140.661 72.9594C136.922 72.9594 133.974 72.1924 131.814 70.6583C129.667 69.1129 128.439 67.0447 128.133 64.4538L136.366 64.2492C136.547 65.2038 137.019 65.931 137.78 66.431C138.542 66.931 139.513 67.181 140.695 67.181C141.763 67.181 142.633 66.9822 143.303 66.5844C143.974 66.1867 144.314 65.6583 144.326 64.9992C144.314 64.4083 144.053 63.9367 143.542 63.5844C143.03 63.2208 142.229 62.9367 141.138 62.7322L136.57 61.8629C133.945 61.3856 131.991 60.5049 130.706 59.2208C129.422 57.9254 128.786 56.2776 128.797 54.2776C128.786 52.5276 129.252 51.0333 130.195 49.7947C131.138 48.5447 132.479 47.5901 134.218 46.931C135.956 46.2719 138.008 45.9424 140.371 45.9424C143.917 45.9424 146.712 46.6867 148.758 48.1754C150.803 49.6526 151.934 51.6867 152.15 54.2776Z" fill="white"/>
<rect x="5.46216" y="1.96512" width="15" height="15" rx="3.5" fill="#18181B" stroke="#27272A"/>
<rect x="25.4622" y="1.96512" width="15" height="15" rx="3.5" fill="#4C1D95" stroke="#6D28D9"/>
<rect x="45.4622" y="1.96512" width="15" height="15" rx="3.5" fill="#5B21B6" stroke="#7C3AED"/>
<rect x="65.4622" y="1.96512" width="15" height="15" rx="3.5" fill="#6D28D9" stroke="#8B5CF6"/>
<rect x="85.4622" y="1.96512" width="15" height="15" rx="3.5" fill="#7C3AED" stroke="#A78BFA"/>
<rect x="105.462" y="1.96512" width="15" height="15" rx="3.5" fill="#8B5CF6" stroke="#C4B5FD"/>
<path d="M670.65 37.2123H684.4" stroke="#8B5CF6" stroke-width="1.88" stroke-linecap="round" stroke-linejoin="round"/>
<path d="M677.525 30.3373V44.0873" stroke="#8B5CF6" stroke-width="1.88" stroke-linecap="round" stroke-linejoin="round"/>
<path d="M710.235 31.5759V43.2123H708.36L702.877 35.2861H702.781V43.2123H700.673V31.5759H702.559L708.037 39.5077H708.139V31.5759H710.235ZM716.248 43.3827C715.396 43.3827 714.657 43.1952 714.032 42.8202C713.407 42.4452 712.922 41.9206 712.578 41.2464C712.237 40.5721 712.066 39.7842 712.066 38.8827C712.066 37.9812 712.237 37.1914 712.578 36.5134C712.922 35.8354 713.407 35.3089 714.032 34.9339C714.657 34.5589 715.396 34.3714 716.248 34.3714C717.1 34.3714 717.839 34.5589 718.464 34.9339C719.089 35.3089 719.572 35.8354 719.913 36.5134C720.258 37.1914 720.43 37.9812 720.43 38.8827C720.43 39.7842 720.258 40.5721 719.913 41.2464C719.572 41.9206 719.089 42.4452 718.464 42.8202C717.839 43.1952 717.1 43.3827 716.248 43.3827ZM716.26 41.735C716.722 41.735 717.108 41.6081 717.419 41.3543C717.729 41.0967 717.96 40.7521 718.112 40.3202C718.267 39.8884 718.345 39.4074 718.345 38.8771C718.345 38.343 718.267 37.86 718.112 37.4282C717.96 36.9926 717.729 36.646 717.419 36.3884C717.108 36.1308 716.722 36.0021 716.26 36.0021C715.786 36.0021 715.392 36.1308 715.078 36.3884C714.767 36.646 714.534 36.9926 714.379 37.4282C714.227 37.86 714.152 38.343 714.152 38.8771C714.152 39.4074 714.227 39.8884 714.379 40.3202C714.534 40.7521 714.767 41.0967 715.078 41.3543C715.392 41.6081 715.786 41.735 716.26 41.735ZM729.674 34.485L726.566 43.2123H724.294L721.186 34.485H723.379L725.385 40.968H725.475L727.487 34.485H729.674ZM734.608 43.3827C733.755 43.3827 733.017 43.1952 732.392 42.8202C731.767 42.4452 731.282 41.9206 730.937 41.2464C730.596 40.5721 730.426 39.7842 730.426 38.8827C730.426 37.9812 730.596 37.1914 730.937 36.5134C731.282 35.8354 731.767 35.3089 732.392 34.9339C733.017 34.5589 733.755 34.3714 734.608 34.3714C735.46 34.3714 736.198 34.5589 736.823 34.9339C737.448 35.3089 737.931 35.8354 738.272 36.5134C738.617 37.1914 738.789 37.9812 738.789 38.8827C738.789 39.7842 738.617 40.5721 738.272 41.2464C737.931 41.9206 737.448 42.4452 736.823 42.8202C736.198 43.1952 735.46 43.3827 734.608 43.3827ZM734.619 41.735C735.081 41.735 735.467 41.6081 735.778 41.3543C736.089 41.0967 736.32 40.7521 736.471 40.3202C736.626 39.8884 736.704 39.4074 736.704 38.8771C736.704 38.343 736.626 37.86 736.471 37.4282C736.32 36.9926 736.089 36.646 735.778 36.3884C735.467 36.1308 735.081 36.0021 734.619 36.0021C734.145 36.0021 733.751 36.1308 733.437 36.3884C733.126 36.646 732.894 36.9926 732.738 37.4282C732.587 37.86 732.511 38.343 732.511 38.8771C732.511 39.4074 732.587 39.8884 732.738 40.3202C732.894 40.7521 733.126 41.0967 733.437 41.3543C733.751 41.6081 734.145 41.735 734.619 41.735ZM746.561 38.0986V43.2123H744.504V31.5759H746.515V35.968H746.617C746.822 35.4755 747.138 35.0873 747.566 34.8032C747.998 34.5153 748.547 34.3714 749.214 34.3714C749.82 34.3714 750.349 34.4983 750.799 34.7521C751.25 35.0058 751.599 35.3771 751.845 35.8657C752.095 36.3543 752.22 36.9509 752.22 37.6555V43.2123H750.163V37.9736C750.163 37.3865 750.011 36.9301 749.708 36.6043C749.409 36.2748 748.989 36.11 748.447 36.11C748.083 36.11 747.758 36.1896 747.47 36.3486C747.186 36.5039 746.962 36.7293 746.799 37.0248C746.64 37.3202 746.561 37.6782 746.561 38.0986ZM756.828 43.3884C756.275 43.3884 755.777 43.2899 755.333 43.093C754.894 42.8922 754.546 42.5967 754.288 42.2066C754.034 41.8164 753.907 41.3354 753.907 40.7634C753.907 40.271 753.998 39.8638 754.18 39.5418C754.362 39.2199 754.61 38.9623 754.924 38.7691C755.239 38.5759 755.593 38.4301 755.987 38.3316C756.385 38.2293 756.796 38.1555 757.22 38.11C757.731 38.057 758.146 38.0096 758.464 37.968C758.782 37.9225 759.013 37.8543 759.157 37.7634C759.305 37.6687 759.379 37.5229 759.379 37.3259V37.2918C759.379 36.8638 759.252 36.5324 758.998 36.2975C758.744 36.0627 758.379 35.9452 757.902 35.9452C757.398 35.9452 756.998 36.0551 756.703 36.2748C756.411 36.4945 756.214 36.7539 756.112 37.0532L754.191 36.7805C754.343 36.2502 754.593 35.807 754.941 35.4509C755.29 35.0911 755.716 34.8221 756.22 34.6441C756.724 34.4623 757.28 34.3714 757.89 34.3714C758.311 34.3714 758.729 34.4206 759.146 34.5191C759.563 34.6176 759.943 34.7805 760.288 35.0077C760.633 35.2312 760.909 35.5361 761.117 35.9225C761.33 36.3089 761.436 36.7918 761.436 37.3714V43.2123H759.458V42.0134H759.39C759.265 42.2558 759.089 42.4831 758.862 42.6952C758.638 42.9036 758.356 43.0721 758.015 43.2009C757.678 43.3259 757.282 43.3884 756.828 43.3884ZM757.362 41.8771C757.775 41.8771 758.133 41.7956 758.436 41.6327C758.739 41.4661 758.972 41.2464 759.135 40.9736C759.301 40.7009 759.385 40.4036 759.385 40.0816V39.0532C759.32 39.1062 759.21 39.1555 759.055 39.2009C758.903 39.2464 758.733 39.2861 758.544 39.3202C758.354 39.3543 758.167 39.3846 757.981 39.4111C757.796 39.4377 757.635 39.4604 757.498 39.4793C757.191 39.521 756.917 39.5892 756.674 39.6839C756.432 39.7786 756.241 39.9111 756.1 40.0816C755.96 40.2483 755.89 40.4642 755.89 40.7293C755.89 41.1081 756.028 41.3941 756.305 41.5873C756.581 41.7805 756.934 41.8771 757.362 41.8771ZM757.191 33.3373L758.464 30.7407H760.475L758.731 33.3373H757.191ZM763.595 43.2123V31.5759H765.652V35.9282H765.737C765.843 35.7161 765.992 35.4907 766.186 35.2521C766.379 35.0096 766.64 34.8032 766.97 34.6327C767.299 34.4585 767.72 34.3714 768.231 34.3714C768.905 34.3714 769.513 34.5437 770.055 34.8884C770.6 35.2293 771.032 35.735 771.35 36.4055C771.672 37.0721 771.833 37.8903 771.833 38.86C771.833 39.8183 771.676 40.6327 771.362 41.3032C771.047 41.9736 770.619 42.485 770.078 42.8373C769.536 43.1896 768.922 43.3657 768.237 43.3657C767.737 43.3657 767.322 43.2824 766.992 43.1157C766.663 42.949 766.398 42.7483 766.197 42.5134C766 42.2748 765.847 42.0494 765.737 41.8373H765.617V43.2123H763.595ZM765.612 38.8486C765.612 39.413 765.691 39.9074 765.85 40.3316C766.013 40.7558 766.246 41.0873 766.549 41.3259C766.856 41.5608 767.227 41.6782 767.663 41.6782C768.117 41.6782 768.498 41.557 768.805 41.3146C769.112 41.0683 769.343 40.7331 769.498 40.3089C769.657 39.8808 769.737 39.3941 769.737 38.8486C769.737 38.307 769.659 37.8259 769.504 37.4055C769.349 36.985 769.117 36.6555 768.811 36.4168C768.504 36.1782 768.121 36.0589 767.663 36.0589C767.224 36.0589 766.85 36.1744 766.544 36.4055C766.237 36.6365 766.004 36.9604 765.845 37.3771C765.689 37.7937 765.612 38.2842 765.612 38.8486ZM773.582 43.2123V34.485H775.639V43.2123H773.582ZM774.616 33.2464C774.29 33.2464 774.01 33.1384 773.775 32.9225C773.54 32.7028 773.423 32.4396 773.423 32.1327C773.423 31.8221 773.54 31.5589 773.775 31.343C774.01 31.1233 774.29 31.0134 774.616 31.0134C774.946 31.0134 775.226 31.1233 775.457 31.343C775.692 31.5589 775.809 31.8221 775.809 32.1327C775.809 32.4396 775.692 32.7028 775.457 32.9225C775.226 33.1384 774.946 33.2464 774.616 33.2464ZM782.112 34.485V36.0759H777.095V34.485H782.112ZM778.333 32.3941H780.39V40.5873C780.39 40.8638 780.432 41.0759 780.515 41.2236C780.602 41.3676 780.716 41.4661 780.856 41.5191C780.996 41.5721 781.152 41.5986 781.322 41.5986C781.451 41.5986 781.568 41.5892 781.674 41.5702C781.784 41.5513 781.867 41.5342 781.924 41.5191L782.271 43.1271C782.161 43.1649 782.004 43.2066 781.799 43.2521C781.599 43.2975 781.352 43.324 781.061 43.3316C780.546 43.3467 780.081 43.2691 779.669 43.0986C779.256 42.9244 778.928 42.6555 778.686 42.2918C778.447 41.9282 778.33 41.4736 778.333 40.9282V32.3941ZM787.545 43.3827C786.693 43.3827 785.954 43.1952 785.329 42.8202C784.704 42.4452 784.219 41.9206 783.875 41.2464C783.534 40.5721 783.363 39.7842 783.363 38.8827C783.363 37.9812 783.534 37.1914 783.875 36.5134C784.219 35.8354 784.704 35.3089 785.329 34.9339C785.954 34.5589 786.693 34.3714 787.545 34.3714C788.397 34.3714 789.136 34.5589 789.761 34.9339C790.386 35.3089 790.869 35.8354 791.21 36.5134C791.555 37.1914 791.727 37.9812 791.727 38.8827C791.727 39.7842 791.555 40.5721 791.21 41.2464C790.869 41.9206 790.386 42.4452 789.761 42.8202C789.136 43.1952 788.397 43.3827 787.545 43.3827ZM787.556 41.735C788.019 41.735 788.405 41.6081 788.715 41.3543C789.026 41.0967 789.257 40.7521 789.409 40.3202C789.564 39.8884 789.642 39.4074 789.642 38.8771C789.642 38.343 789.564 37.86 789.409 37.4282C789.257 36.9926 789.026 36.646 788.715 36.3884C788.405 36.1308 788.019 36.0021 787.556 36.0021C787.083 36.0021 786.689 36.1308 786.375 36.3884C786.064 36.646 785.831 36.9926 785.676 37.4282C785.524 37.86 785.448 38.343 785.448 38.8771C785.448 39.4074 785.524 39.8884 785.676 40.3202C785.831 40.7521 786.064 41.0967 786.375 41.3543C786.689 41.6081 787.083 41.735 787.556 41.735Z" fill="white"/>
<rect x="644.025" y="11.7123" width="172" height="51" rx="7.5" stroke="#8B5CF6"/>
</g>
<defs>
<filter id="filter0_d_6_1838" x="0.962158" y="0" width="819.563" height="82.4246" filterUnits="userSpaceOnUse" color-interpolation-filters="sRGB">
<feFlood flood-opacity="0" result="BackgroundImageFix"/>
<feColorMatrix in="SourceAlpha" type="matrix" values="0 0 0 0 0 0 0 0 0 0 0 0 0 0 0 0 0 0 127 0" result="hardAlpha"/>
<feOffset dy="4"/>
<feGaussianBlur stdDeviation="2"/>
<feComposite in2="hardAlpha" operator="out"/>
<feColorMatrix type="matrix" values="0 0 0 0 0 0 0 0 0 0 0 0 0 0 0 0 0 0 0.25 0"/>
<feBlend mode="normal" in2="BackgroundImageFix" result="effect1_dropShadow_6_1838"/>
<feBlend mode="normal" in="SourceGraphic" in2="effect1_dropShadow_6_1838" result="shape"/>
</filter>
</defs>
</svg>
